<svg version="1.1" xmlns="http://www.w3.org/2000/svg" xmlns:xlink="http://www.w3.org/1999/xlink" width="48" height="48"><defs><linearGradient x1="12.23266" y1="12.23188" x2="37.47079" y2="37.47156" gradientUnits="userSpaceOnUse" id="color-1"><stop offset="0.11" stop-color="#000000" stop-opacity="0.53"></stop><stop offset="1" stop-color="#000000" stop-opacity="0"></stop></linearGradient><filter id="dropshadow-base"><feColorMatrix type="matrix" values="0 0 0 0 0  0 0 0 0 0  0 0 0 0 0  0 0 0 .8 0"></feColorMatrix> <feOffset dx="0" dy="1"></feOffset> <feGaussianBlur stdDeviation="1"></feGaussianBlur> <feComposite in="SourceGraphic"></feComposite></filter><filter id="dropshadow-banner" x="-10%" y="-10%" width="120%" height="130%"><feColorMatrix type="matrix" values="0 0 0 0 0  0 0 0 0 0  0 0 0 0 0  0 0 0 .4 0"></feColorMatrix> <feOffset dx="0" dy="1"></feOffset> <feGaussianBlur stdDeviation="0.5"></feGaussianBlur> <feComposite in="SourceGraphic"></feComposite></filter></defs><g fill="none" fill-rule="nonzero" stroke="none" stroke-width="none" stroke-linecap="butt" stroke-linejoin="miter" stroke-miterlimit="10" stroke-dasharray="" stroke-dashoffset="0" font-family="none" font-weight="none" font-size="none" text-anchor="none" style="mix-blend-mode: normal"><path d="M7,43c-1.10457,0 -2,-0.89543 -2,-2v-34c0,-1.10457 0.89543,-2 2,-2h34c1.10457,0 2,0.89543 2,2v34c0,1.10457 -0.89543,2 -2,2z" id="base 1 5" fill="#f5ee4e" stroke-width="1"></path><path d="M22.56962,35.03375c-0.08817,0 -0.17651,-0.03376 -0.24385,-0.1011l-1.70343,-1.70343c0.06734,0.06734 0.15568,0.1011 0.24385,0.1011c0.08817,0 0.17651,-0.03376 0.24367,-0.1011c0.13467,-0.13467 0.13467,-0.35286 0,-0.48753l-4.15133,-4.15148c-0.13496,-0.13078 -0.35022,-0.12948 -0.48358,0.00388c-0.13462,0.13462 -0.13467,0.35286 -0.00016,0.48737l-1.70343,-1.70343c-0.13451,-0.13451 -0.13446,-0.35275 0.00016,-0.48737c0.13467,-0.13467 0.35286,-0.13467 0.48753,0l1.70343,1.70343l5.85081,5.85102c0.13467,0.13467 0.13467,0.35286 0,0.48753c-0.06716,0.06734 -0.1555,0.1011 -0.24367,0.1011zM20.13164,32.73852l-4.63194,4.63213l-1.46276,-1.46274c-0.06727,0.06737 -0.1009,0.15563 -0.10086,0.24389l1.31977,1.31977c-0.08817,0 -0.17633,-0.03376 -0.24367,-0.10091l-2.67865,-2.67865c-0.1345,-0.13467 -0.1345,-0.35286 0,-0.48753l4.63213,-4.63213l1.70343,1.70343l-0.0001,0.0001zM33.89798,20.80429c-0.03851,0 -0.07686,0.00105 -0.11501,0.00313l0.47605,0.47605c0.022,-0.40228 -0.07255,-0.8098 -0.28366,-1.16699c-0.3301,-0.04166 -0.64805,-0.13554 -0.94433,-0.27735l-0.04911,0.04911zM30.7288,19.2162l-0.00001,0.00001l-1.00609,-1.00609c-0.05782,0.0981 -0.12882,0.19053 -0.21299,0.2747c-0.26037,0.26037 -0.60675,0.40385 -0.97505,0.40385c-0.36847,0 -0.71467,-0.14348 -0.97523,-0.40385l-1.08924,-1.08924c-0.00825,0.15086 -0.00011,0.30245 0.02442,0.45186c0.073,0.01187 0.14698,0.01988 0.22169,0.02394l1.70343,1.70343l-0.86013,0.86031l-0.73138,-0.73138c-0.06464,-0.06464 -0.15227,-0.10091 -0.24385,-0.10091c-0.09139,0 -0.17903,0.03627 -0.24385,0.10091l-8.40286,8.40286c-0.06464,0.06464 -0.1011,0.15244 -0.1011,0.24385c0,0.0914 0.03646,0.17903 0.1011,0.24367l-1.70343,-1.70343c-0.06464,-0.06464 -0.1011,-0.15227 -0.1011,-0.24367c0,-0.0914 0.03646,-0.17921 0.1011,-0.24385l8.40286,-8.40286c0.06482,-0.06464 0.15246,-0.10091 0.24385,-0.10091c0.09158,0 0.17921,0.03627 0.24385,0.10091l0.73138,0.73138l0.48748,-0.48758l-0.97518,-0.97518c-0.80643,-0.80661 -0.80643,-2.1189 0,-2.92551c0.39074,-0.39074 0.91023,-0.60586 1.46276,-0.60586c0.55253,0 1.07202,0.21512 1.46276,0.60586l1.28477,1.28477c-0.08391,-0.88926 0.21364,-1.80799 0.89303,-2.48751c0.58611,-0.58611 1.36526,-0.90879 2.19413,-0.90879c0.82889,0 1.60802,0.32268 2.19413,0.90879l1.70343,1.70343c1.20974,1.20993 1.20974,3.17835 0,4.38827c-0.58611,0.58611 -1.36526,0.90879 -2.19413,0.90879c-0.09779,0 -0.19487,-0.0045 -0.29102,-0.01341l1.2824,1.2824c0.80643,0.80661 0.80643,2.1189 0,2.92551c-0.39074,0.39056 -0.91023,0.60586 -1.46276,0.60586c-0.55253,0 -1.07202,-0.21512 -1.46276,-0.60586c0,0 0,0 0,0l-0.97519,-0.97519l-0.48756,0.48766l0.73154,0.73154c0.13451,0.13451 0.13446,0.35275 -0.00016,0.48737l-8.40286,8.40286c-0.06734,0.06734 -0.15568,0.1011 -0.24385,0.1011c-0.08802,0 -0.17623,-0.03365 -0.24335,-0.10077l-1.70343,-1.70343c-0.00011,-0.00011 -0.00022,-0.00022 -0.00033,-0.00033l0.00065,0.00065c0.06708,0.0669 0.15514,0.10045 0.24302,0.10045c0.08817,0 0.17651,-0.03376 0.24385,-0.1011l8.40286,-8.40286c0.13457,-0.13457 0.13467,-0.35268 0.00033,-0.4872l-0.7317,-0.7317l0.8612,-0.86138c0.02694,0.4913 0.22715,0.97451 0.60155,1.34891c0.25971,0.25971 0.57629,0.44183 0.92165,0.53477l0.18022,-0.18026c0.00412,0.07508 0.01228,0.14997 0.02449,0.22431c0.11017,0.01791 0.22258,0.02704 0.33639,0.02704c0.03863,0 0.07711,-0.00105 0.11538,-0.00314l-1.09006,-1.09006c-0.00012,-0.00012 -0.00024,-0.00024 -0.00036,-0.00036l-0.00016,-0.00016c-0.53764,-0.53764 -0.53759,-1.41237 0.00016,-1.95012c0.0833,-0.0833 0.1754,-0.15463 0.2742,-0.21313zM32.43522,24.33566c0,0 0,0 0,0zM33.16979,22.14453c0.17236,-0.17236 0.28946,-0.37938 0.35131,-0.59884c-0.22394,0.06324 -0.42916,0.18299 -0.59816,0.35198c-0.17243,0.17243 -0.28957,0.3795 -0.35143,0.599c0.22393,-0.06326 0.42919,-0.18304 0.59828,-0.35214zM27.80628,16.78139c0.17243,-0.17243 0.28958,-0.37952 0.35144,-0.59903c-0.22396,0.06324 -0.42917,0.18299 -0.59829,0.35199c-0.17238,0.17243 -0.28948,0.37951 -0.35132,0.59902c0.22394,-0.06324 0.42917,-0.18299 0.59817,-0.35199zM28.87112,15.46803c-0.11019,-0.01792 -0.22263,-0.02705 -0.33646,-0.02705c-0.03857,0 -0.07698,0.00105 -0.1152,0.00313l0.47597,0.47597c0.00831,-0.15093 0.0002,-0.30259 -0.02432,-0.45206zM35.53875,14.16223c-0.26757,-0.10876 -0.55063,-0.17968 -0.84255,-0.21004l1.05385,1.05385c-0.0304,-0.28778 -0.10083,-0.5721 -0.2113,-0.84381zM31.4971,18.21064c0.26738,0.1087 0.55013,0.17971 0.84177,0.21013l-1.05307,-1.05307c0.03049,0.28748 0.10093,0.57149 0.21129,0.84294zM34.37236,17.04122c0.63155,-0.63143 0.83928,-1.52857 0.62321,-2.33481c-0.20173,-0.05383 -0.41184,-0.08159 -0.62621,-0.08159c-0.64465,0 -1.25068,0.25104 -1.70661,0.70696c-0.63142,0.63142 -0.83912,1.52856 -0.6231,2.33479c0.20176,0.05384 0.41189,0.08161 0.62629,0.08161c0.64465,0 1.25068,-0.25104 1.70643,-0.70696z" fill="url(#color-1)" stroke-width="1"></path><path d="M21.10986,32.7417c0.13468,0.13468 0.13468,0.35285 0,0.48753c-0.06716,0.06734 -0.15551,0.1011 -0.24367,0.1011c-0.08817,0 -0.17651,-0.03376 -0.24385,-0.1011l-2.19413,-2.19413l-4.63194,4.63212c-0.06734,0.06734 -0.15551,0.10092 -0.24385,0.10092c-0.08817,0 -0.17634,-0.03376 -0.24367,-0.10092l-0.97523,-0.97523c-0.1345,-0.13468 -0.1345,-0.35285 0,-0.48753l4.63212,-4.63212l-2.19413,-2.19413c-0.13468,-0.1345 -0.13468,-0.35285 0,-0.48753c0.13468,-0.13468 0.35285,-0.13468 0.48753,0zM30.48795,18.97534l0.50818,0.508c0.34764,-0.24816 0.76262,-0.38248 1.19843,-0.38248c0.55253,0 1.07202,0.21512 1.46276,0.60586c0.80644,0.80662 0.80644,2.1189 0,2.92551c-0.39074,0.39056 -0.91023,0.60586 -1.46276,0.60586c-0.55253,0 -1.07202,-0.21512 -1.46276,-0.60586c-0.3744,-0.3744 -0.57462,-0.85761 -0.60155,-1.34891l-0.86121,0.86139l0.73138,0.73138c0.13468,0.1345 0.13468,0.35285 0,0.48753l-8.40286,8.40286c-0.06734,0.06734 -0.15568,0.1011 -0.24385,0.1011c-0.08817,0 -0.17651,-0.03376 -0.24367,-0.1011l-4.8758,-4.8758c-0.06464,-0.06464 -0.1011,-0.15227 -0.1011,-0.24367c0,-0.0914 0.03645,-0.17921 0.1011,-0.24385l8.40286,-8.40286c0.06482,-0.06464 0.15245,-0.10092 0.24385,-0.10092c0.09158,0 0.17921,0.03627 0.24385,0.10092l0.73138,0.73138l0.86013,-0.86031c-0.50925,-0.02765 -0.98421,-0.239 -1.34783,-0.60245c-0.80644,-0.80662 -0.80644,-2.1189 0,-2.92551c0.39074,-0.39074 0.91023,-0.60586 1.46276,-0.60586c0.55253,0 1.07202,0.21512 1.46276,0.60586c0.72348,0.72348 0.79746,1.85367 0.22302,2.66101l0.50836,0.50836l0.84091,-0.84091c-0.5493,-1.15318 -0.34782,-2.57769 0.6055,-3.53119c0.58611,-0.58611 1.36525,-0.90879 2.19413,-0.90879c0.82888,0 1.60803,0.32268 2.19413,0.90879c1.20975,1.20993 1.20975,3.17834 0,4.38827c-0.58611,0.58611 -1.36525,0.90879 -2.19413,0.90879c-0.47101,0 -0.92567,-0.10451 -1.33832,-0.30203zM30.95932,17.04122c0.45592,0.45592 1.06196,0.70696 1.70661,0.70696c0.64465,0 1.25069,-0.25104 1.70643,-0.70696c0.94111,-0.94093 0.94111,-2.47193 0,-3.41286c-0.45574,-0.45592 -1.06178,-0.70696 -1.70643,-0.70696c-0.64465,0 -1.25069,0.25104 -1.70661,0.70696c-0.94093,0.94093 -0.94093,2.47193 0,3.41286zM25.85601,16.78139c0.26055,0.26037 0.60676,0.40385 0.97523,0.40385c0.36829,0 0.71468,-0.14347 0.97505,-0.40385c0.5378,-0.5378 0.5378,-1.41266 0,-1.95046c-0.26037,-0.26037 -0.60676,-0.40385 -0.97505,-0.40385c-0.36847,0 -0.71468,0.14347 -0.97523,0.40385c-0.53762,0.5378 -0.53762,1.41266 0,1.95046zM32.19456,19.7904c-0.36829,0 -0.71468,0.14347 -0.97505,0.40385c-0.5378,0.5378 -0.5378,1.41266 0,1.95028c0.26037,0.26055 0.60676,0.40403 0.97505,0.40403c0.36829,0 0.71468,-0.14347 0.97523,-0.40403c0.53762,-0.53762 0.53762,-1.41248 0,-1.95028c-0.26055,-0.26037 -0.60694,-0.40385 -0.97523,-0.40385z" fill="none" stroke-width="0"></path><g stroke-width="1"><path d="M30.71564,17.28508c-0.16843,-0.16825 -0.31047,-0.35303 -0.42611,-0.54894l-2.18354,2.18354l0.97505,0.97505l2.18354,-2.18354c-0.19591,-0.11564 -0.38068,-0.25768 -0.54894,-0.42611zM30.71564,17.28508" fill="#a4a6aa"></path><path d="M25.85601,21.16948l4.14442,-2.19413l0.97523,0.97523l-3.16937,3.16919zM25.85601,21.16948" fill="#a4a6aa"></path><path d="M30.00061,18.97534l-3.16919,3.16919l-1.95028,-1.95028l3.16919,-3.16919zM30.00061,18.97534" fill="#c5c6c8"></path><path d="M28.78152,24.09499l0.97505,-0.97523l-0.97505,-0.97505l-3.41304,1.46276zM28.78152,24.09499" fill="#e2e3e3"></path><path d="M26.34353,24.58252l2.43799,-2.43781l-3.90056,-3.90074l-0.97523,0.97523zM26.34353,24.58252" fill="#f1f1f1"></path><path d="M21.35371,31.5228l7.42781,-7.42781l-0.97523,-0.97523l-5.6641,1.76371l-1.76371,5.6641zM21.35371,31.5228" fill="#c5c6c8"></path><path d="M27.80647,23.11976l-7.42763,7.42781l-3.90074,-3.90056l7.42781,-7.42781zM27.80647,23.11976" fill="#e2e3e3"></path><path d="M18.42838,30.54775l-4.87562,4.87562l-0.97523,-0.97505l4.8758,-4.8758zM18.42838,30.54775" fill="#e2e3e3"></path><path d="M15.25902,26.89068c-0.13468,-0.13468 -0.35285,-0.13468 -0.48753,0c-0.13468,0.13468 -0.13468,0.35303 0,0.48753l2.19413,2.19413l-4.63212,4.63212c-0.1345,0.13468 -0.1345,0.35285 0,0.48753l0.97523,0.97523c0.06734,0.06716 0.15551,0.10092 0.24367,0.10092c0.08835,0 0.17651,-0.03358 0.24385,-0.10092l4.63194,-4.63212l2.19413,2.19413c0.06734,0.06734 0.15568,0.1011 0.24385,0.1011c0.08817,0 0.17651,-0.03376 0.24367,-0.1011c0.13468,-0.13468 0.13468,-0.35285 0,-0.48753zM13.55241,34.93584l-0.48753,-0.48753l4.38827,-4.38827l0.48753,0.48753zM13.55241,34.93584" fill="#000000"></path><path d="M31.32761,18.13569c0.41265,0.19752 0.86731,0.30203 1.33832,0.30203c0.82888,0 1.60803,-0.32268 2.19413,-0.90879c1.20975,-1.20993 1.20975,-3.17834 0,-4.38827c-0.58611,-0.58611 -1.36525,-0.90879 -2.19413,-0.90879c-0.82888,0 -1.60803,0.32268 -2.19413,0.90879c-0.95332,0.9535 -1.1548,2.37801 -0.6055,3.53119l-0.84091,0.84091l-0.50836,-0.50836c0.57444,-0.80734 0.50045,-1.93753 -0.22302,-2.66101c-0.39074,-0.39074 -0.91023,-0.60586 -1.46276,-0.60586c-0.55253,0 -1.07202,0.21512 -1.46276,0.60586c-0.80644,0.80662 -0.80644,2.1189 0,2.92551c0.36362,0.36344 0.83858,0.5748 1.34783,0.60245l-0.86013,0.86031l-0.73138,-0.73138c-0.06464,-0.06464 -0.15227,-0.10092 -0.24385,-0.10092c-0.0914,0 -0.17903,0.03627 -0.24385,0.10092l-8.40286,8.40286c-0.06464,0.06464 -0.1011,0.15245 -0.1011,0.24385c0,0.0914 0.03645,0.17903 0.1011,0.24367l4.8758,4.8758c0.06716,0.06734 0.15551,0.1011 0.24367,0.1011c0.08817,0 0.17651,-0.03376 0.24385,-0.1011l8.40286,-8.40286c0.13468,-0.13468 0.13468,-0.35303 0,-0.48753l-0.73138,-0.73138l0.86121,-0.86139c0.02694,0.4913 0.22715,0.97451 0.60155,1.34891c0.39074,0.39074 0.91023,0.60586 1.46276,0.60586c0.55253,0 1.07202,-0.2153 1.46276,-0.60586c0.80644,-0.80662 0.80644,-2.1189 0,-2.92551c-0.39074,-0.39074 -0.91023,-0.60586 -1.46276,-0.60586c-0.43581,0 -0.85079,0.13432 -1.19843,0.38248l-0.50818,-0.508zM30.95932,13.62836c0.45592,-0.45592 1.06196,-0.70696 1.70661,-0.70696c0.64465,0 1.25069,0.25104 1.70643,0.70696c0.94111,0.94093 0.94111,2.47193 0,3.41286c-0.45574,0.45592 -1.06178,0.70696 -1.70643,0.70696c-0.64465,0 -1.25069,-0.25104 -1.70661,-0.70696c-0.94093,-0.94093 -0.94093,-2.47193 0,-3.41286zM30.24194,17.27125c0.07111,0.08907 0.14742,0.17526 0.22985,0.25768c0.08206,0.08206 0.16825,0.15838 0.2575,0.22985l-0.72886,0.72904l-0.48753,-0.48771zM25.85601,14.83093c0.26055,-0.26037 0.60676,-0.40385 0.97523,-0.40385c0.36829,0 0.71468,0.14347 0.97505,0.40385c0.5378,0.5378 0.5378,1.41266 0,1.95046c-0.26037,0.26037 -0.60676,0.40385 -0.97505,0.40385c-0.36847,0 -0.71468,-0.14347 -0.97523,-0.40385c-0.53762,-0.5378 -0.53762,-1.41266 0,-1.95046zM28.78152,23.60729l-2.68166,-2.68166c-0.13468,-0.13468 -0.35285,-0.13468 -0.48753,0c-0.13468,0.13468 -0.13468,0.35303 0,0.48753l2.68166,2.68166l-6.94028,6.94028l-4.38809,-4.38809l6.94028,-6.94028l0.73138,0.73138c0.06734,0.06734 0.15551,0.1011 0.24367,0.1011c0.08835,0 0.17651,-0.03376 0.24385,-0.1011c0.13468,-0.1345 0.13468,-0.35285 0,-0.48753l-0.73138,-0.73138l0.48753,-0.48753l0.73102,0.73102c0.00018,0 0.00018,0.00018 0.00036,0.00036c0.00018,0.00018 0.00036,0.00018 0.00036,0.00036l2.92515,2.92497v0.00018l0.73138,0.7312zM33.16979,20.19425c0.53762,0.5378 0.53762,1.41266 0,1.95028c-0.26055,0.26055 -0.60694,0.40403 -0.97523,0.40403c-0.36829,0 -0.71468,-0.14347 -0.97505,-0.40403c-0.5378,-0.53762 -0.5378,-1.41248 0,-1.95028c0.26037,-0.26037 0.60676,-0.40385 0.97505,-0.40385c0.36829,0 0.71468,0.14347 0.97523,0.40385zM28.78152,21.657l-2.43781,-2.43781l1.70643,-1.70661l0.73102,0.73102c0.00018,0.00018 0.00018,0.00018 0.00036,0.00036c0,0.00018 0.00018,0.00018 0.00036,0.00036l0.97433,0.97415c0.00018,0.00018 0.00018,0.00036 0.00036,0.00054c0.00018,0.00036 0.00054,0.00036 0.00072,0.00054l0.73084,0.73084zM28.78152,21.657" fill="#000000"></path></g><path d="M2,24c0,-12.15026 9.84974,-22 22,-22c12.15026,0 22,9.84974 22,22c0,12.15026 -9.84974,22 -22,22c-12.15026,0 -22,-9.84974 -22,-22z" id="base 1 1 1" fill="none" stroke-width="1"></path><g fill="#000000" stroke-width="1" font-family="Roboto, sans-serif" font-weight="400" font-size="14" text-anchor="start"></g><rect x="2" y="2" width="44" height="22" fill="none" stroke-width="1"></rect><path d="M2,24v-22h44v22z" fill="none" stroke-width="1"></path><path d="M2,24v-22h44v22z" fill="none" stroke-width="1"></path><path d="M2,24v-22h44v22z" fill="none" stroke-width="1"></path><path d="M2,24v-22h44v22z" fill="none" stroke-width="1"></path></g></svg>