<svg height="512pt" viewBox="0 0 512 512" width="512pt" xmlns="http://www.w3.org/2000/svg"><path d="m402.074219 109.925781c-3.664063-3.660156-6.753907-7.679687-9.269531-11.941406l-47.5 47.5 21.210937 21.210937 47.5-47.5c-4.261719-2.515624-8.28125-5.605468-11.941406-9.269531zm0 0" fill="#a4a6aa"/><path d="m296.359375 194.425781 90.15625-47.730469 21.214844 21.214844-68.945313 68.941406zm0 0" fill="#a4a6aa"/><path d="m386.519531 146.695312-68.941406 68.941407-42.425781-42.425781 68.941406-68.941407zm0 0" fill="#c5c6c8"/><path d="m360 258.066406 21.210938-21.214844-21.210938-21.210937-74.246094 31.820313zm0 0" fill="#e2e3e3"/><path d="m306.964844 268.671875 53.035156-53.03125-84.851562-84.855469-21.214844 21.214844zm0 0" fill="#f1f1f1"/><path d="m198.417969 419.648438 161.582031-161.582032-21.214844-21.214844-123.214844 38.367188-38.367187 123.214844zm0 0" fill="#c5c6c8"/><path d="m338.789062 236.851562-161.578124 161.582032-84.855469-84.851563 161.582031-161.582031zm0 0" fill="#e2e3e3"/><path d="m134.78125 398.4375-106.0625 106.0625-21.214844-21.210938 106.066406-106.066406zm0 0" fill="#e2e3e3"/><path d="m65.835938 318.882812c-2.929688-2.929687-7.675782-2.929687-10.605469 0-2.929688 2.929688-2.929688 7.679688 0 10.605469l47.730469 47.730469-100.765626 100.765625c-2.925781 2.929687-2.925781 7.675781 0 10.605469l21.214844 21.214844c1.464844 1.460937 3.382813 2.195312 5.300782 2.195312 1.921874 0 3.839843-.730469 5.304687-2.195312l100.761719-100.765626 47.730468 47.730469c1.464844 1.464844 3.386719 2.199219 5.304688 2.199219s3.839844-.734375 5.300781-2.199219c2.929688-2.929687 2.929688-7.675781 0-10.605469zm-37.125 175.011719-10.605469-10.605469 95.460937-95.460937 10.605469 10.605469zm0 0"/><path d="m415.386719 128.429688c8.976562 4.296874 18.867187 6.570312 29.113281 6.570312 18.03125 0 34.980469-7.019531 47.730469-19.769531 26.316406-26.320313 26.316406-69.140625 0-95.460938-12.75-12.75-29.699219-19.769531-47.730469-19.769531s-34.980469 7.019531-47.730469 19.769531c-20.738281 20.742188-25.121093 51.730469-13.171875 76.816407l-18.292968 18.292968-11.058594-11.058594c12.496094-17.5625 10.886718-42.148437-4.851563-57.886718-8.5-8.5-19.800781-13.179688-31.820312-13.179688s-23.320313 4.679688-31.820313 13.179688c-17.542968 17.546875-17.542968 46.09375 0 63.640625 7.910156 7.90625 18.242188 12.503906 29.320313 13.105469l-18.710938 18.714843-15.910156-15.910156c-1.40625-1.40625-3.3125-2.195313-5.304687-2.195313-1.988282 0-3.894532.789063-5.304688 2.195313l-182.792969 182.792969c-1.40625 1.40625-2.199219 3.316406-2.199219 5.304687s.792969 3.894531 2.199219 5.300781l106.066407 106.066407c1.460937 1.464843 3.382812 2.199219 5.300781 2.199219s3.839843-.734376 5.304687-2.199219l182.792969-182.792969c2.929687-2.929688 2.929687-7.679688 0-10.605469l-15.910156-15.910156 18.734375-18.738281c.585937 10.6875 4.941406 21.199218 13.085937 29.34375 8.5 8.5 19.800781 13.179687 31.820313 13.179687 12.019531 0 23.320312-4.683593 31.820312-13.179687 17.542969-17.546875 17.542969-46.09375 0-63.640625-8.5-8.5-19.800781-13.179688-31.820312-13.179688-9.480469 0-18.507813 2.921875-26.070313 8.320313l-11.054687-11.050782zm-8.011719-98.050782c9.917969-9.917968 23.101562-15.378906 37.125-15.378906s27.207031 5.460938 37.121094 15.378906c20.472656 20.46875 20.472656 53.773438 0 74.242188-9.914063 9.917968-23.097656 15.378906-37.121094 15.378906s-27.207031-5.460938-37.125-15.378906c-20.46875-20.46875-20.46875-53.773438 0-74.242188zm-15.605469 79.246094c1.546875 1.9375 3.207031 3.8125 5 5.605469 1.785157 1.785156 3.660157 3.445312 5.601563 5l-15.855469 15.859375-10.605469-10.609375zm-95.410156-53.085938c5.667969-5.664062 13.199219-8.785156 21.214844-8.785156 8.011719 0 15.546875 3.121094 21.210937 8.785156 11.699219 11.699219 11.699219 30.730469 0 42.429688-5.664062 5.664062-13.199218 8.785156-21.210937 8.785156-8.015625 0-15.546875-3.121094-21.214844-8.785156-11.695313-11.699219-11.695313-30.730469 0-42.429688zm63.640625 190.917969-58.335938-58.335937c-2.929687-2.929688-7.675781-2.929688-10.605468 0-2.929688 2.929687-2.929688 7.679687 0 10.605468l58.335937 58.335938-150.976562 150.976562-95.457031-95.457031 150.976562-150.976562 15.910156 15.910156c1.464844 1.464844 3.382813 2.199219 5.300782 2.199219 1.921874 0 3.839843-.734375 5.304687-2.199219 2.929687-2.925781 2.929687-7.675781 0-10.605469l-15.910156-15.910156 10.605469-10.605469 15.902343 15.902344c.003907 0 .003907.003906.007813.007813.003906.003906.007812.003906.007812.007812l63.632813 63.628906v.003906l15.910156 15.90625zm95.460938-74.246093c11.695312 11.699218 11.695312 30.730468 0 42.425781-5.667969 5.667969-13.203126 8.789062-21.214844 8.789062-8.011719 0-15.546875-3.121093-21.210938-8.789062-11.699218-11.695313-11.699218-30.726563 0-42.425781 5.664063-5.664063 13.199219-8.785157 21.210938-8.785157 8.011718 0 15.546875 3.121094 21.214844 8.785157zm-95.460938 31.820312-53.03125-53.03125 37.121094-37.125 15.902344 15.902344c.003906.003906.003906.003906.007812.007812 0 .003906.003906.003906.007812.007813l21.195313 21.191406c.003906.003906.003906.007813.007813.011719.003906.007812.011718.007812.015624.011718l15.898438 15.898438zm0 0"/></svg>